HIERARCHY
ROOT root
{
	OFFSET	0	13.1	24.9
	CHANNELS 6  Xposition Yposition Zposition Xrotation Yrotation Zrotation
	JOINT spine_1
	{
		OFFSET	0	9.99999	0
		CHANNELS 3  Xrotation Yrotation Zrotation
		JOINT spine_2
		{
			OFFSET	0	112	-10
			CHANNELS 3  Xrotation Yrotation Zrotation
			JOINT spine_3
			{
				OFFSET	0	206.5	19.3
				CHANNELS 3  Xrotation Yrotation Zrotation
				JOINT spine_4
				{
					OFFSET	0	110.4	14.6
					CHANNELS 3  Xrotation Yrotation Zrotation
					JOINT neck_1
					{
						OFFSET	0	71.8	-50.3
						CHANNELS 3  Xrotation Yrotation Zrotation
						JOINT neck_2
						{
							OFFSET	0	86.2	-25.8
							CHANNELS 3  Xrotation Yrotation Zrotation
							JOINT head_ee
							{
								OFFSET	0	179.8	-8.7
								CHANNELS 3  Xrotation Yrotation Zrotation
								End Site
								{
									OFFSET	1	0	0
								}
							}
						}
					}
					JOINT left_clavicle
					{
						OFFSET	-43.2	22.4	-70.8
						CHANNELS 3  Xrotation Yrotation Zrotation
						JOINT left_shoulder
						{
							OFFSET	-93.9	-5.79999	48.7
							CHANNELS 3  Xrotation Yrotation Zrotation
							JOINT left_elbow
							{
								OFFSET	-291.4	-30.8	15.2
								CHANNELS 3  Xrotation Yrotation Zrotation
								JOINT left_lowarm_twist
								{
									OFFSET	-110.7	-3.89999	13.6
									CHANNELS 3  Xrotation Yrotation Zrotation
									JOINT left_hand
									{
										OFFSET	-110.7	-3.89999	13.6
										CHANNELS 3  Xrotation Yrotation Zrotation
										JOINT left_ee
										{
											OFFSET	-80.8	-5.10001	12.1
											CHANNELS 3  Xrotation Yrotation Zrotation
											End Site
											{
												OFFSET	1	0	0
											}
										}
									}
								}
							}
						}
					}
					JOINT right_clavicle
					{
						OFFSET	43.2	22.4	-70.8
						CHANNELS 3  Xrotation Yrotation Zrotation
						JOINT right_shoulder
						{
							OFFSET	93.9	-5.79999	48.7
							CHANNELS 3  Xrotation Yrotation Zrotation
							JOINT right_elbow
							{
								OFFSET	291.4	-30.8	15.2
								CHANNELS 3  Xrotation Yrotation Zrotation
								JOINT right_lowarm_twist
								{
									OFFSET	110.7	-3.89999	13.6
									CHANNELS 3  Xrotation Yrotation Zrotation
									JOINT right_hand
									{
										OFFSET	110.7	-3.89999	13.6
										CHANNELS 3  Xrotation Yrotation Zrotation
										JOINT right_ee
										{
											OFFSET	80.8	-5.10001	12.1
											CHANNELS 3  Xrotation Yrotation Zrotation
											End Site
											{
												OFFSET	1	0	0
											}
										}
									}
								}
							}
						}
					}
				}
			}
		}
	}
	JOINT left_hip
	{
		OFFSET	-82.8	-127.5	0.300001
		CHANNELS 3  Xrotation Yrotation Zrotation
		JOINT left_knee
		{
			OFFSET	-28.2	-396.7	2.2
			CHANNELS 3  Xrotation Yrotation Zrotation
			JOINT left_ankle
			{
				OFFSET	-11.7	-411.3	35.4
				CHANNELS 3  Xrotation Yrotation Zrotation
				JOINT left_toes
				{
					OFFSET	0	-60	-88.6
					CHANNELS 3  Xrotation Yrotation Zrotation
					JOINT left_foot_ee
					{
						OFFSET	-22.5	-16.5	-42.2
						CHANNELS 3  Xrotation Yrotation Zrotation
						End Site
						{
							OFFSET	1	0	0
						}
					}
				}
			}
		}
	}
	JOINT right_hip
	{
		OFFSET	82.8	-127.5	0.300001
		CHANNELS 3  Xrotation Yrotation Zrotation
		JOINT right_knee
		{
			OFFSET	28.2	-396.7	2.2
			CHANNELS 3  Xrotation Yrotation Zrotation
			JOINT right_ankle
			{
				OFFSET	11.7	-411.3	35.4
				CHANNELS 3  Xrotation Yrotation Zrotation
				JOINT right_toes
				{
					OFFSET	0	-60	-88.6
					CHANNELS 3  Xrotation Yrotation Zrotation
					JOINT right_foot_ee
					{
						OFFSET	22.5	-16.5	-42.2
						CHANNELS 3  Xrotation Yrotation Zrotation
						End Site
						{
							OFFSET	1	0	0
						}
					}
				}
			}
		}
	}
}
MOTION
Frames: 15
Frame Time: 0.02
1984.45 708.079 -1207.3 -16.0888 52.6224 7.05487 5.13652 0.631458 3.6088 5.14367 0.400697 3.64161 5.16265 -0.0439586 3.66329 5.14433 0.534755 3.62437 -8.29958 7.9436 -6.53798 -8.20045 19.4205 -4.71339 -0.0 0.0 -0.0 2.53398 5.1638 5.24854 -8.16902 -23.5028 50.8442 1.56637 -37.8063 0.536413 31.5027 0.0174719 -3.97394 1.76956 -6.03167 9.42162 -0.0 0.0 -0.0 10.738 9.31534 -21.4596 -31.1226 36.1281 -71.9078 0.394455 11.0566 -0.0381784 47.3797 0.787673 5.831 -2.34858 -14.1767 8.86459 0.0 0.0 0.0 -3.55713 7.14889 11.846 -5.96962 0.199352 0.894059 41.8691 18.2865 -5.15822 -15.0015 0.0 0.0 -0.0 0.0 -0.0 37.2155 7.36686 -2.82675 3.02707 0.136439 0.444384 4.76185 -11.665 0.68945 -10.8852 0.0 0.0 0.0 0.0 0.0 
1959.21 713.552 -1225.64 -14.6595 51.988 5.46333 4.70594 0.71899 3.69626 4.71341 0.482499 3.73445 4.73899 -0.00173828 3.76545 4.7197 0.592548 3.7186 -7.62964 7.76308 -6.64472 -7.49407 19.1813 -4.9846 -0.0 0.0 -0.0 2.35301 5.81326 4.9626 -10.6216 -22.5086 51.5705 1.4864 -36.3626 0.488191 31.5248 0.0167145 -3.97667 1.98504 -5.02076 11.325 -0.0 0.0 -0.0 11.188 8.48913 -22.4518 -31.2813 36.69 -70.6635 0.393373 11.027 -0.0379711 47.4043 0.789315 5.8337 -2.32818 -13.6335 9.01027 0.0 0.0 0.0 -3.2017 7.13438 11.3886 -10.1576 0.283119 1.53112 40.9802 18.4213 -5.08246 -14.243 0.0 0.0 -0.0 0.0 -0.0 34.4794 7.43285 -2.73257 1.85749 0.0809348 0.273527 6.18135 -7.79952 0.889599 -8.70311 0.0 0.0 0.0 0.0 0.0 
1936.04 715.276 -1238.41 -12.764 51.3298 3.64641 4.44874 0.77267 3.86122 4.45688 0.525597 3.90247 4.48689 0.00212686 3.93765 4.46579 0.623502 3.88805 -6.91985 6.83297 -6.97376 -6.74085 17.7163 -5.63633 -0.0 0.0 -0.0 2.28429 7.37716 4.94698 -12.3554 -20.6803 52.4301 1.38852 -34.5195 0.431423 32.5922 -0.0210133 -4.10777 2.10722 -5.38923 12.0109 -0.0 0.0 -0.0 10.848 8.54185 -21.7012 -29.9898 37.7349 -70.8267 0.492307 13.7056 -0.0591648 46.5878 0.735501 5.7441 -1.92196 -12.9176 6.78952 0.0 0.0 0.0 -2.9792 5.15968 11.3344 -15.4465 0.322072 2.34139 37.9089 19.2366 -4.81427 -12.7454 0.0 0.0 -0.0 0.0 -0.0 32.3005 8.03723 -2.98923 1.50824 0.0650397 0.222296 0.749156 -3.65359 0.109809 -7.24992 0.0 0.0 0.0 0.0 0.0 
1919.7 716.963 -1248.27 -11.909 51.1915 2.57626 4.23348 0.762383 3.97245 4.24211 0.508269 4.01282 4.2721 -0.0449603 4.04458 4.24976 0.593849 4.00107 -6.23099 6.22617 -8.52429 -5.94537 17.7571 -7.45539 -0.0 0.0 -0.0 2.14101 7.03838 4.66686 -14.6869 -20.9749 53.2518 1.22031 -31.1521 0.340179 31.692 0.0109661 -3.99725 2.226 -3.83347 13.484 -0.0 0.0 -0.0 11.1586 9.76892 -22.3904 -27.0693 38.7783 -71.4328 0.507713 14.1176 -0.0628688 47.3455 0.785398 5.82727 -2.31151 -13.4074 9.01849 0.0 0.0 0.0 -3.63996 6.67725 11.6614 -17.3376 0.317831 2.63149 37.1111 19.39 -4.73992 -12.8347 0.0 0.0 -0.0 0.0 -0.0 30.5793 7.37654 -3.27328 0.491115 0.0205345 0.0725672 2.86534 -6.19724 0.416569 -6.52857 0.0 0.0 0.0 0.0 0.0 
1894.67 721.776 -1259.48 -11.4467 50.9969 2.80827 4.22932 0.651105 3.86651 4.23754 0.403941 3.90003 4.25971 -0.133973 3.91858 4.23861 0.486096 3.89066 -5.50796 5.46964 -10.7365 -5.05033 18.0574 -10.0075 -0.0 0.0 -0.0 2.13924 7.69292 4.71072 -17.1383 -20.208 55.2997 1.10082 -28.6034 0.280637 32.0127 -0.000228278 -4.03668 1.97415 -3.1262 12.0393 -0.0 0.0 -0.0 10.3448 10.2729 -20.5867 -23.9988 39.6666 -72.7204 0.58004 16.0313 -0.0816817 47.3683 0.786917 5.82976 -2.27188 -13.0475 8.94738 0.0 0.0 0.0 -4.1162 6.17866 11.1156 -19.4773 0.301491 2.95938 34.6339 19.3175 -4.48961 -12.7167 0.0 0.0 -0.0 0.0 -0.0 28.2335 8.04597 -2.90866 -0.0712127 -0.00292591 -0.0105366 0.966265 1.07165 0.143013 -5.65323 0.0 0.0 0.0 0.0 0.0 
1874.25 733.931 -1274.17 -10.6721 50.9298 1.93336 4.06095 0.724882 4.07608 4.07007 0.464266 4.11386 4.09793 -0.115093 4.13833 4.07444 0.539362 4.1047 -4.57305 4.68979 -10.7478 -4.09309 16.7328 -10.3227 -0.0 0.0 -0.0 1.59415 8.48796 3.80814 -19.6002 -19.3334 56.9166 0.987903 -26.0756 0.228768 31.5391 0.0162262 -3.97843 2.01968 -2.4524 12.6299 -0.0 0.0 -0.0 10.4127 12.2766 -20.7011 -19.8462 39.887 -73.4983 0.612434 16.877 -0.0908576 47.4259 0.790754 5.83605 -2.11813 -13.0119 7.98756 0.0 0.0 0.0 -2.33999 5.98106 10.1111 -21.4793 0.275127 3.26541 31.1789 18.9955 -4.11745 -13.8718 0.0 0.0 -0.0 0.0 -0.0 25.9316 8.0518 -2.40192 -1.21235 -0.0480171 -0.179852 -1.85751 5.13866 -0.28089 -4.83011 0.0 0.0 0.0 0.0 0.0 
1856.82 735.293 -1283.37 -10.3472 51.4725 1.90352 3.87255 0.580354 4.02746 3.88152 0.323117 4.05616 3.89947 -0.26123 4.06061 3.87667 0.382806 4.05097 -4.93034 4.27785 -11.7643 -4.39161 16.7097 -11.3846 -0.0 0.0 -0.0 1.3503 9.05615 3.42911 -20.3874 -19.0703 58.6306 0.851621 -22.8731 0.172286 31.8933 0.00396557 -4.02201 1.78809 -0.707083 11.7499 -0.0 0.0 -0.0 10.066 12.7739 -19.9201 -17.1762 40.3844 -74.6271 0.647969 17.7959 -0.101447 47.4561 0.792773 5.83935 -2.11219 -11.6605 8.61531 0.0 0.0 0.0 -1.5445 6.24727 9.60347 -23.9547 0.227767 3.64228 31.0384 17.5037 -4.07916 -13.8257 0.0 0.0 -0.0 0.0 -0.0 25.2557 8.45046 -1.86031 -2.76306 -0.103863 -0.411279 -3.55305 5.89703 -0.54112 -4.22205 0.0 0.0 0.0 0.0 0.0 
1835.77 740.387 -1297.49 -9.08472 50.8639 0.981386 3.75855 0.602686 4.05353 3.76762 0.343748 4.0836 3.78743 -0.25271 4.09023 3.76431 0.395887 4.07888 -5.33901 4.33211 -11.8359 -4.80991 16.8123 -11.3735 -0.0 0.0 -0.0 0.722795 9.3802 2.36719 -21.4035 -18.6404 60.7577 0.699081 -19.1012 0.117622 32.4044 -0.0141974 -4.08475 1.18737 1.79689 8.67932 -0.0 0.0 -0.0 9.89378 12.453 -19.5492 -13.0805 40.972 -75.9611 0.670924 18.3846 -0.108575 46.6656 0.740574 5.75267 -2.17547 -10.4401 9.62503 0.0 0.0 0.0 -0.204246 5.7866 9.22409 -25.7219 0.184014 3.90994 27.9211 17.4813 -3.73151 -14.3561 0.0 0.0 -0.0 0.0 -0.0 23.4707 8.44908 -1.9227 -2.6212 -0.099015 -0.390048 -1.44129 12.8405 -0.227156 -2.94311 0.0 0.0 0.0 0.0 0.0 
1812.15 740.898 -1304.69 -7.40984 50.6569 -0.912593 3.7218 0.683071 4.18563 3.73144 0.415588 4.22052 3.75718 -0.203595 4.23602 3.73245 0.467352 4.21511 -5.14768 4.01383 -12.4422 -4.56563 16.7101 -12.0946 -0.0 0.0 -0.0 0.208202 9.13632 1.44589 -23.2868 -18.1936 63.1801 0.588127 -16.2431 0.0839295 32.1897 -0.00649999 -4.05842 1.11544 3.5023 8.87412 -0.0 0.0 -0.0 9.60483 12.1092 -18.9239 -10.8242 40.9161 -76.1717 0.655372 17.9862 -0.103721 46.1382 0.706421 5.69445 -2.49049 -10.6712 11.5581 0.0 0.0 0.0 0.793235 6.05906 9.28728 -29.4049 0.0664001 4.46284 26.2544 16.7949 -3.53096 -14.6918 0.0 0.0 -0.0 0.0 -0.0 21.4632 8.7131 -0.660545 -3.30613 -0.121935 -0.492664 1.84262 18.0577 0.299657 -1.16128 0.0 0.0 0.0 0.0 0.0 
1795.22 740.84 -1315.19 -7.63944 50.1253 -0.514462 3.62979 0.829587 4.23034 3.63957 0.55897 4.27445 3.67661 -0.0752775 4.31012 3.6512 0.605739 4.26808 -4.23269 4.56715 -14.055 -3.42983 19.0722 -13.9056 -0.0 0.0 -0.0 -1.02141 10.2137 -0.547109 -22.5279 -17.9733 65.2197 0.53862 -14.9396 0.0706225 32.6765 -0.0240984 -4.1181 0.79328 5.33279 7.45298 -0.0 0.0 -0.0 9.30308 12.5611 -18.2488 -7.92989 41.7626 -76.8714 0.695998 19.0231 -0.116616 46.259 0.714195 5.70781 -2.17269 -9.93567 9.85586 0.0 0.0 0.0 1.16617 3.68253 8.6663 -29.9979 0.0441467 4.55113 24.8592 14.7848 -3.34775 -15.089 0.0 0.0 -0.0 0.0 -0.0 20.1863 8.78101 -0.528594 -3.36575 -0.123872 -0.501609 3.26115 21.7254 0.54645 -0.206633 0.0 0.0 0.0 0.0 0.0 
1768.76 738.294 -1324.99 -7.75694 49.0789 -0.828093 4.00726 0.786753 4.17239 4.01679 0.5199 4.21389 4.04944 -0.0774489 4.24508 4.02479 0.593351 4.2042 -5.35861 5.64132 -13.0357 -4.68868 20.1042 -12.4126 -0.0 0.0 -0.0 -1.73502 10.2014 -1.77909 -27.1941 -17.805 67.8024 0.542681 -15.0471 0.0716729 33.8525 -0.0686977 -4.26163 0.662016 6.27835 6.9604 -0.0 0.0 -0.0 9.37027 12.3285 -18.4034 -7.47491 41.5875 -75.3164 0.712461 19.4396 -0.122038 45.6482 0.675169 5.64008 -1.6424 -9.07542 6.82405 0.0 0.0 0.0 3.53026 0.513548 9.90041 -31.8688 -0.032038 4.82811 22.412 18.8222 -3.09157 -15.868 0.0 0.0 -0.0 0.0 -0.0 17.5303 9.25888 0.991654 -3.23147 -0.119496 -0.481466 6.58413 26.8353 1.1541 -3.53436 0.0 0.0 0.0 0.0 0.0 
1750.48 736.839 -1330.98 -8.36651 48.4176 -0.393199 4.46162 0.77169 4.1358 4.47099 0.50719 4.17642 4.50125 -0.0515643 4.20674 4.47709 0.612873 4.16225 -5.20721 6.66049 -14.6303 -4.32769 23.18 -13.9757 -0.0 0.0 -0.0 -2.83173 10.5809 -3.6074 -28.9029 -17.8313 70.3234 0.568565 -15.7301 0.0785418 34.4877 -0.0940123 -4.33877 0.487232 8.56473 6.71845 -0.0 0.0 -0.0 9.3288 12.4004 -18.3103 -6.54597 41.9184 -74.4748 0.735012 20.0067 -0.129649 45.2265 0.648648 5.59307 -1.2879 -8.77857 4.66487 0.0 0.0 0.0 5.37004 -1.95409 10.9129 -33.9667 -0.128192 5.13563 20.9144 19.1152 -2.90751 -16.1726 0.0 0.0 -0.0 0.0 -0.0 18.0241 9.00128 0.650226 -3.61883 -0.131991 -0.539601 12.4017 29.7985 2.20233 -4.97466 0.0 0.0 0.0 0.0 0.0 
1735.54 734.397 -1337.56 -9.3256 47.0093 0.584123 4.78817 0.840348 3.98835 4.79683 0.585068 4.03363 4.83098 0.0682855 4.07521 4.80852 0.710506 4.01347 -5.5031 7.72361 -15.1267 -4.55335 25.4501 -14.2592 -0.0 0.0 -0.0 -3.83149 11.1098 -5.22901 -29.9958 -18.1055 72.4867 0.597938 -16.4995 0.0866949 34.9032 -0.111038 -4.3891 0.369447 10.8484 6.85274 -0.0 0.0 -0.0 9.61818 12.742 -18.9339 -4.86924 42.1441 -73.7229 0.747959 20.3305 -0.134113 45.4146 0.660437 5.61407 -1.10819 -8.59854 3.58362 0.0 0.0 0.0 7.20389 -3.19739 12.5093 -35.8426 -0.223676 5.40753 19.6601 20.8008 -2.76633 -16.4011 0.0 0.0 -0.0 0.0 -0.0 17.8631 8.54825 -0.289239 -4.09787 -0.146898 -0.611609 16.5993 25.9863 2.75385 -5.91865 0.0 0.0 0.0 0.0 0.0 
1716.0 730.999 -1346.2 -10.4793 47.1578 1.99902 4.958 0.877346 3.76792 4.96567 0.635985 3.81602 5.0014 0.158058 3.86535 4.98137 0.766091 3.79207 -5.24891 8.49016 -15.3098 -4.22062 27.018 -14.4141 -0.0 0.0 -0.0 -4.19518 11.8529 -5.69456 -31.5686 -18.0528 73.0784 0.619149 -17.0513 0.0928168 33.7883 -0.0661886 -4.25382 0.381519 11.9207 7.34741 -0.0 0.0 -0.0 9.69203 12.5649 -19.1018 -4.2559 41.5386 -72.2984 0.764308 20.7374 -0.139847 44.7801 0.620958 5.54312 -0.850964 -7.38376 2.45315 0.0 0.0 0.0 9.54236 -5.35675 13.2552 -36.6549 -0.267781 5.52429 18.1191 19.3643 -2.55121 -16.7712 0.0 0.0 -0.0 0.0 -0.0 16.642 8.74318 0.156764 -3.24646 -0.119987 -0.483714 19.8425 30.4574 3.4181 -4.95127 0.0 0.0 0.0 0.0 0.0 
1699.51 737.995 -1350.92 -10.9284 49.5556 2.0863 5.04821 0.743866 3.95566 5.05678 0.490856 3.99489 5.08342 -0.00271612 4.02489 5.06138 0.632464 3.97496 -6.23158 9.94321 -14.7412 -5.3316 29.1346 -13.2641 -0.0 0.0 -0.0 -4.44121 14.4794 -5.51554 -30.4729 -18.1818 70.9928 0.564045 -15.6111 0.077321 32.098 -0.00324092 -4.04715 0.271858 14.3343 7.58354 -0.0 0.0 -0.0 9.90763 12.9076 -19.5662 -4.5294 39.8153 -71.1971 0.74548 20.2686 -0.133253 46.507 0.730244 5.73519 -0.701054 -6.41742 1.89755 0.0 0.0 0.0 10.5841 -3.0017 11.6763 -36.7486 -0.272979 5.53772 12.6118 17.2425 -1.80068 -17.8534 0.0 0.0 -0.0 0.0 -0.0 16.1529 1.22039 1.41372 -4.34396 -0.154321 -0.648647 19.8361 28.9194 3.34949 -5.97532 0.0 0.0 0.0 0.0 0.0 
